<svg id="Capa_1" enable-background="new 0 0 512 512" height="512" viewBox="0 0 512 512" width="512" xmlns="http://www.w3.org/2000/svg" xmlns:xlink="http://www.w3.org/1999/xlink"><linearGradient id="SVGID_1_" gradientUnits="userSpaceOnUse" x1="256" x2="256" y1="34.925" y2="204.925"><stop offset=".00000036422" stop-color="#a8abff"/><stop offset="1" stop-color="#fac8ff"/></linearGradient><linearGradient id="SVGID_2_" gradientUnits="userSpaceOnUse" x1="256" x2="256" y1="239.255" y2="474.425"><stop offset=".00000083866" stop-color="#96d1f3"/><stop offset="1" stop-color="#ccfff4"/></linearGradient><linearGradient id="SVGID_3_" gradientUnits="userSpaceOnUse" x1="256" x2="256" y1=".075" y2="511.925"><stop offset=".00000011981" stop-color="#174fa3"/><stop offset="1" stop-color="#b044af"/></linearGradient><g id="Filled_27_"><path d="m7.5 151.25v30h20.5v323.175h456v-323.175h20.5v-30z" fill="#fff"/><g><path d="m351.5 34.925h-191c-46.944 0-85 38.056-85 85s38.056 85 85 85c35.621 0 66.106-21.92 78.749-53h33.503c12.643 31.08 43.127 53 78.748 53 46.944 0 85-38.056 85-85s-38.056-85-85-85z" fill="url(#SVGID_1_)"/><g fill="#fff"><path d="m195.925 104.925h-27.175v-27.175h-30v27.175h-27.175v30h27.175v27.175h30v-27.175h27.175z"/><g><path d="m205 7.575h-36.25c-8.284 0-15 6.716-15 15v12.35h66.25v-12.35c0-8.284-6.716-15-15-15z"/><path d="m346 7.575h-36.25c-8.284 0-15 6.716-15 15v12.35h66.25v-12.35c0-8.284-6.716-15-15-15z"/></g></g></g><path d="m58 239.255v235.17h96.12.005v-189h203.75v189h.005 96.12v-235.17z" fill="url(#SVGID_2_)"/><path d="m131.25 169.6h45v-27.175h27.175v-45h-27.175v-27.175h-45v27.175h-27.175v45h27.175zm-12.175-42.175v-15h27.175v-27.175h15v27.175h27.175v15h-27.175v27.175h-15v-27.175zm237.896-17.363-10.607-10.607 22.836-22.838 10.607 10.607zm-34 36-10.607-10.607 22.837-22.837 10.607 10.607zm47.392-22.608 22.837-22.837 10.607 10.607-22.837 22.837zm-11.163 13.163 10.607 10.607-22.837 22.837-10.607-10.607zm152.8 52.138v-45h-71.118c2.03-7.606 3.118-15.593 3.118-23.83 0-45.199-32.587-82.924-75.5-90.928v-6.421c0-12.406-10.094-22.5-22.5-22.5h-36.25c-12.406 0-22.5 10.094-22.5 22.5v4.85h-59.75v-4.85c0-12.406-10.094-22.5-22.5-22.5h-36.25c-12.406 0-22.5 10.094-22.5 22.5v5.948c-44.263 6.872-78.25 45.241-78.25 91.401 0 8.237 1.088 16.224 3.118 23.83h-71.118v45h20.5v308.17h-20.5v15h512v-15h-20.5v-308.17zm-15-30v15h-70.321c3.369-4.692 6.308-9.712 8.764-15zm-194.75-136.18c0-4.136 3.364-7.5 7.5-7.5h36.25c4.136 0 7.5 3.364 7.5 7.5v4.875c-.665-.014-1.331-.025-2-.025h-49.25zm-133.5-7.5h36.25c4.136 0 7.5 3.364 7.5 7.5v4.85h-51.25v-4.85c0-4.136 3.364-7.5 7.5-7.5zm-8.25 27.35h191c42.733 0 77.5 34.767 77.5 77.5s-34.767 77.5-77.5 77.5c-31.676 0-59.858-18.969-71.801-48.326l-1.901-4.674h-43.596l-1.901 4.674c-11.942 29.357-40.125 48.326-71.801 48.326-42.733 0-77.5-34.767-77.5-77.5s34.767-77.5 77.5-77.5zm115.741 131.33h-40.483c3.181-4.466 5.994-9.253 8.387-14.33h23.709c2.393 5.077 5.207 9.864 8.387 14.33zm-261.241-15h61.557c2.456 5.288 5.395 10.308 8.764 15h-70.321zm131.625 119.17v189h-81.125v-220.17h381v220.17h-81.125v-189zm15 15h188.75v204h-15v-189h-158.75v189h-15zm158.75 204h-128.75v-174h128.75zm156.125 0h-111.125v-15h96.125v-250.17h-411v250.17h96.125v15h-111.125v-308.17h63.275c16.384 14.708 38.026 23.67 61.725 23.67 23.437 0 45.266-8.709 61.874-23.67h67.252c16.608 14.961 38.437 23.67 61.874 23.67 23.699 0 45.341-8.962 61.725-23.67h63.275zm-360.804-182.804 10.607 10.607-32 32-10.607-10.607zm0 43 10.607 10.607-32 32-10.607-10.607zm280.608-.392-10.607-10.607 32-32 10.607 10.607zm0 43-10.607-10.607 32-32 10.607 10.607z" fill="url(#SVGID_3_)"/></g></svg>