<svg id="Capa_1" enable-background="new 0 0 512 512" height="512" viewBox="0 0 512 512" width="512" xmlns="http://www.w3.org/2000/svg"><g id="Outline_30_" fill="#233d91"><path d="m131.25 169.6h45v-27.175h27.175v-45h-27.175v-27.175h-45v27.175h-27.175v45h27.175zm-12.175-42.175v-15h27.175v-27.175h15v27.175h27.175v15h-27.175v27.175h-15v-27.175z"/><path d="m346.937 85.839h32.296v15.001h-32.296z" transform="matrix(.707 -.707 .707 .707 40.344 284.079)"/><path d="m312.937 121.839h32.296v15.001h-32.296z" transform="matrix(.707 -.707 .707 .707 4.93 270.581)"/><path d="m370.937 109.839h32.296v15.001h-32.296z" transform="matrix(.707 -.707 .707 .707 30.403 308.079)"/><path d="m336.937 145.839h32.296v15.001h-32.296z" transform="matrix(.707 -.707 .707 .707 -5.011 294.581)"/><path d="m512 188.755v-45h-71.118c14.016-52.522-20.172-105.02-72.382-114.759v-6.421c0-12.406-10.094-22.5-22.5-22.5h-36.25c-12.406 0-22.5 10.094-22.5 22.5v4.85h-59.75v-4.85c0-12.406-10.094-22.5-22.5-22.5h-36.25c-12.406 0-22.5 10.094-22.5 22.5v5.948c-53.822 8.358-89.372 61.87-75.132 115.232h-71.118v45h20.5v308.17h-20.5v15h512v-15h-20.5v-308.17zm-202.25-173.68h36.25c9.587 0 7.241 11.422 7.5 12.375-2.321-.049.826-.014-51.25-.025.221-.813-1.951-12.35 7.5-12.35zm-141 0h36.25c9.587 0 7.236 11.382 7.5 12.35h-51.25c.221-.813-1.951-12.35 7.5-12.35zm-8.25 27.35h191c42.733 0 77.5 34.767 77.5 77.5s-34.767 77.5-77.5 77.5c-57.654 0-73.312-52.508-73.702-53h-43.596c-.287.362-16.996 53-73.702 53-42.733 0-77.5-34.767-77.5-77.5s34.767-77.5 77.5-77.5zm115.741 131.33h-40.483c3.181-4.466 5.994-9.253 8.387-14.33h23.709c2.393 5.077 5.207 9.864 8.387 14.33zm-261.241 0v-15h61.557c2.456 5.288 5.395 10.308 8.764 15zm131.625 293.17h-81.125v-220.17h381v220.17h-81.125v-189h-218.75zm173.75 30h-128.75v-174h128.75zm30 0h-15v-189h-158.75v189h-15v-204h188.75zm126.125 0h-111.125v-15h96.125v-250.17h-411v250.17h96.125v15h-111.125v-308.17h63.275c35.377 31.758 88.785 31.361 123.599 0h67.252c34.761 31.314 88.169 31.805 123.599 0h63.275zm-49.821-323.17c3.369-4.692 6.308-9.712 8.764-15h61.557v15z"/><path d="m82.373 327.924h45.255v15.001h-45.255z" transform="matrix(.707 -.707 .707 .707 -206.427 172.49)"/><path d="m82.373 370.924h45.255v15.001h-45.255z" transform="matrix(.707 -.707 .707 .707 -236.833 185.084)"/><path d="m384.373 327.924h45.255v15.001h-45.255z" transform="matrix(.707 -.707 .707 .707 -117.974 386.036)"/><path d="m384.373 370.924h45.255v15.001h-45.255z" transform="matrix(.707 -.707 .707 .707 -148.379 398.631)"/></g></svg>